HIERARCHY
ROOT Hips
{
 OFFSET 0.000000 0.000000 0.000000
 CHANNELS 6 Xposition Yposition Zposition Yrotation Xrotation Zrotation
 JOINT Chest
 {
  OFFSET 0.000000 10.101222 -0.056779
  CHANNELS 3 Yrotation Xrotation Zrotation
  JOINT Chest2
  {
   OFFSET 0.000000 8.297218 0.103137
   CHANNELS 3 Yrotation Xrotation Zrotation
   JOINT Chest3
   {
    OFFSET 0.000000 7.493411 0.000000
    CHANNELS 3 Yrotation Xrotation Zrotation
    JOINT Chest4
    {
     OFFSET 0.000000 7.493411 0.000000
     CHANNELS 3 Yrotation Xrotation Zrotation
     JOINT Neck
     {
      OFFSET 0.000000 10.747351 0.000000
      CHANNELS 3 Yrotation Xrotation Zrotation
      JOINT Head
      {
       OFFSET 0.000000 7.717153 0.188667
       CHANNELS 3 Yrotation Xrotation Zrotation
       End Site
       {
        OFFSET 0.000000 14.853047 0.068983
       }
      }
     }
     JOINT RightCollar
     {
      OFFSET -2.766550 6.061559 0.000000
      CHANNELS 3 Yrotation Xrotation Zrotation
      JOINT RightShoulder
      {
       OFFSET -14.830725 0.000000 0.000000
       CHANNELS 3 Yrotation Xrotation Zrotation
       JOINT RightElbow
       {
        OFFSET -28.959634 0.000000 0.000000
        CHANNELS 3 Yrotation Xrotation Zrotation
        JOINT RightWrist
        {
         OFFSET -23.742631 0.000000 0.003006
         CHANNELS 3 Yrotation Xrotation Zrotation
         End Site
         {
          OFFSET -17.766445 0.000000 0.000000
         }
        }
       }
      }
     }
     JOINT LeftCollar
     {
      OFFSET 2.766550 6.061559 0.000000
      CHANNELS 3 Yrotation Xrotation Zrotation
      JOINT LeftShoulder
      {
       OFFSET 14.830725 0.000000 0.000000
       CHANNELS 3 Yrotation Xrotation Zrotation
       JOINT LeftElbow
       {
        OFFSET 28.959634 0.000000 0.000000
        CHANNELS 3 Yrotation Xrotation Zrotation
        JOINT LeftWrist
        {
         OFFSET 23.742631 0.000000 0.003006
         CHANNELS 3 Yrotation Xrotation Zrotation
         End Site
         {
          OFFSET 17.766445 0.000000 0.000000
         }
        }
       }
      }
     }
    }
   }
  }
 }
 JOINT RightHip
 {
  OFFSET -8.655184 0.278217 0.028389
  CHANNELS 3 Yrotation Xrotation Zrotation
  JOINT RightKnee
  {
   OFFSET 0.000000 -47.671744 -0.001158
   CHANNELS 3 Yrotation Xrotation Zrotation
   JOINT RightAnkle
   {
    OFFSET 0.000000 -42.492694 -0.036854
    CHANNELS 3 Yrotation Xrotation Zrotation
    JOINT RightToe
    {
     OFFSET 0.000000 -5.741774 14.901460
     CHANNELS 3 Yrotation Xrotation Zrotation
     End Site
     {
      OFFSET 0.000000 -1.778666 8.212983
     }
    }
   }
  }
 }
 JOINT LeftHip
 {
  OFFSET 8.655184 0.278217 0.028389
  CHANNELS 3 Yrotation Xrotation Zrotation
  JOINT LeftKnee
  {
   OFFSET 0.000000 -47.671744 -0.001158
   CHANNELS 3 Yrotation Xrotation Zrotation
   JOINT LeftAnkle
   {
    OFFSET 0.000000 -42.492694 -0.036854
    CHANNELS 3 Yrotation Xrotation Zrotation
    JOINT LeftToe
    {
     OFFSET 0.000000 -5.741774 14.901460
     CHANNELS 3 Yrotation Xrotation Zrotation
     End Site
     {
      OFFSET 0.000000 -1.778666 8.212983
     }
    }
   }
  }
 }
}
MOTION
Frames: 7
Frame Time: 0.004167
489.781014 97.114907 775.743061 171.744107 -7.862466 -3.192006 -1.337165 12.995794 -0.753370 -0.548815 -1.862896 -0.256683 -0.549511 3.426931 -0.307373 -0.410288 2.570471 -0.227376 8.471088 15.289368 -1.292384 16.299746 -7.154085 -5.532238 4.662623 -7.163679 -5.288898 21.760511 -17.489597 70.915779 111.533578 11.057775 8.770861 -35.762589 10.035712 -17.042998 -0.147906 -2.899954 -5.573324 -7.809458 1.975229 -76.299488 -9.899759 -44.432303 -95.657358 -28.064330 -35.967877 18.448580 5.028769 8.975275 3.760906 3.291486 3.763942 1.953809 -9.390645 -4.125495 -9.720546 0.324978 1.488244 8.641425 3.479363 8.191236 0.077553 -1.690246 0.699373 -4.169192 15.150815 -8.635729 2.154926 0.000000 0.000000 0.000000
489.733650 97.114866 775.797305 171.464022 -7.736740 -3.217615 -1.335161 13.026383 -0.741494 -0.548544 -1.849340 -0.251439 -0.549254 3.440487 -0.302104 -0.410119 2.580633 -0.223415 8.446015 15.213719 -1.279984 16.257273 -7.298756 -5.511202 4.625064 -7.164163 -5.318540 21.636689 -17.399052 71.079311 111.644350 11.021977 8.769920 -35.775453 10.001676 -17.080576 -0.148424 -2.920855 -5.558515 -7.790312 1.996111 -76.284373 -9.850490 -44.381739 -95.666547 -27.979018 -35.961435 18.302816 5.133572 8.775055 3.729673 3.405079 3.767634 1.992828 -9.314721 -4.062580 -9.683420 0.321451 1.472796 8.609340 3.541361 7.938681 0.071242 -1.503217 0.906907 -4.164694 15.168783 -8.743914 2.169281 0.000000 0.000000 0.000000
489.685412 97.114612 775.851770 171.178923 -7.610627 -3.243843 -1.333471 13.057723 -0.730521 -0.548358 -1.835446 -0.246575 -0.549082 3.454383 -0.297224 -0.410011 2.591051 -0.219744 8.417940 15.139631 -1.264875 16.208023 -7.441262 -5.483763 4.586856 -7.165195 -5.347453 21.517102 -17.307594 71.240926 111.751388 10.990133 8.767843 -35.789682 9.963826 -17.121570 -0.150197 -2.942046 -5.542291 -7.772502 2.017965 -76.270590 -9.803080 -44.333688 -95.672738 -27.892736 -35.954031 18.154650 5.241551 8.573055 3.698503 3.517644 3.771453 2.031926 -9.236587 -3.998285 -9.645448 0.317713 1.455595 8.576940 3.608895 7.686540 0.066215 -1.318043 1.111854 -4.160045 15.188392 -8.850997 2.184244 0.000000 0.000000 0.000000
489.636234 97.114136 775.906231 170.889691 -7.484477 -3.270264 -1.332529 13.089806 -0.720827 -0.548427 -1.821214 -0.242233 -0.549165 3.468616 -0.292889 -0.410091 2.601723 -0.216480 8.386190 15.067702 -1.246661 16.150508 -7.580622 -5.448833 4.548128 -7.166659 -5.375136 21.402634 -17.214804 71.399965 111.854894 10.963992 8.764090 -35.804910 9.921814 -17.166782 -0.153687 -2.963514 -5.524499 -7.756824 2.041458 -76.258503 -9.758787 -44.289925 -95.674660 -27.804238 -35.945510 18.002311 5.350539 8.370132 3.666721 3.629697 3.775178 2.070971 -9.155778 -3.932626 -9.606754 0.313730 1.436306 8.544421 3.683792 7.435236 0.062226 -1.137743 1.314261 -4.155256 15.210067 -8.957001 2.199789 0.000000 0.000000 0.000000
489.586049 97.113432 775.960466 170.597206 -7.358636 -3.296443 -1.332774 13.122621 -0.712787 -0.548923 -1.806649 -0.238551 -0.549675 3.483183 -0.289254 -0.410484 2.612647 -0.213738 8.350090 14.998533 -1.224946 16.083232 -7.715846 -5.405321 4.509014 -7.168435 -5.401088 21.294165 -17.120279 71.555764 111.955088 10.945294 8.758097 -35.820767 9.875275 -17.217003 -0.159355 -2.985241 -5.504985 -7.744072 2.067253 -76.248477 -9.718841 -44.252235 -95.671059 -27.712279 -35.935688 17.844032 5.458375 8.167143 3.633669 3.741754 3.778588 2.109829 -9.071826 -3.865618 -9.567459 0.309467 1.414595 8.511979 3.767879 7.185191 0.058993 -0.965338 1.514172 -4.150352 15.234237 -9.061950 2.215890 0.000000 0.000000 0.000000
489.534790 97.112490 776.014251 170.302350 -7.233446 -3.321939 -1.334648 13.156150 -0.706770 -0.550020 -1.791756 -0.235670 -0.550783 3.498078 -0.286475 -0.411321 2.623818 -0.211634 8.308969 14.932733 -1.199336 16.004698 -7.845930 -5.352135 4.469651 -7.170393 -5.424815 21.192570 -17.023628 71.707645 112.052203 10.935773 8.749278 -35.836884 9.823831 -17.273011 -0.167664 -3.007209 -5.483587 -7.735049 2.096009 -76.240880 -9.684453 -44.222409 -95.660700 -27.615617 -35.924356 17.678052 5.562911 7.964943 3.598707 3.854330 3.781464 2.148367 -8.984267 -3.797277 -9.527684 0.304890 1.390126 8.479811 3.862987 6.936819 0.056198 -0.803849 1.711639 -4.145370 15.261328 -9.165869 2.232518 0.000000 0.000000 0.000000
489.482390 97.111303 776.067362 170.006008 -7.109242 -3.346304 -1.338595 13.190377 -0.703147 -0.551890 -1.776542 -0.233725 -0.552663 3.513293 -0.284704 -0.412729 2.635231 -0.210280 8.262154 14.870913 -1.169437 15.913405 -7.969857 -5.288185 4.430180 -7.172399 -5.445823 21.098717 -16.924471 71.854924 112.146483 10.937156 8.737023 -35.852889 9.767089 -17.335579 -0.179075 -3.029398 -5.460143 -7.730557 2.128381 -76.236079 -9.656811 -44.202243 -95.642363 -27.513011 -35.911274 17.502617 5.662003 7.764389 3.561212 3.967941 3.783585 2.186452 -8.892632 -3.727618 -9.487550 0.299965 1.362563 8.448113 3.970950 6.690536 0.053493 -0.656299 1.906716 -4.140358 15.291768 -9.268782 2.249642 0.000000 0.000000 0.000000
